<svg height="680" viewBox="0 0 740 680" width="740" xmlns="http://www.w3.org/2000/svg"><g fill="none" fill-rule="evenodd"><path d="m690.225393 195.334154c-.533433-.387914-1.798988-.525463-2.387748-.641668-2.44725-.482436-4.968269-.692486-7.46319-.692486-7.693197.011519-15.511313.766681-23.076806 2.073733-4.803333.829696-10.610202 3.622002-15.388481 2.105578-8.324408-2.642221-16.737548-2.512465-24.635349 1.259621-7.220657 3.449219-12.702177 10.00006-15.901036 17.078396-.482629 1.068543-2.440638 5.001216-2.994949 7.652246-.236966.542064-.464536 1.087854-.669836 1.641776-.582497 1.572662-1.104795 3.173105-1.590208 4.776598-.207388.684016-.728991 2.194342-.10961 2.486378-.989617 1.826416-1.866841 3.708733-2.597571 5.652031-2.125033 5.651692-4.448407 11.851208-5.195144 17.841351-.276633 2.218057-.287072 4.448988-.030273 6.67145.127008 1.098356.074465 3.307266.819114 4.142383 1.580465 1.77221 2.391923-.708748 2.213764-1.890447-1.36055-9.00639 1.266599-17.463939 4.380205-25.929959 2.013336-5.474505 5.321456-10.482835 9.027301-15.018553 2.999126-3.671466 6.216426-6.562698 10.327653-8.996903 5.027423-2.976608 10.402466-5.383032 15.728097-7.79691 3.502633-1.588246 7.009441-3.133806 10.609853-4.502178.800672-.304572 2.060311-1.085144 2.947974-1.088193 1.877281-.006776 4.537487 1.378536 6.350741 1.893835 5.96415 1.695644 12.004505 3.866609 18.168387 4.732556 3.953598.555954 7.657704-.069791 11.355199-1.387006.377892-.134161 1.011191-.480065 1.787157-.974021 2.74511-1.056008 5.341985-2.38508 7.603073-4.302292 1.302788-1.104794 2.484831-2.532454 3.562832-3.839166.322565-.390625.465231-.838505.470103-1.264025.244272-.127724.406425-.276792.442961-.45093.268979-1.286046-2.183839-1.309761-3.754213-1.233195" fill="#89c5cc"/><path d="m86.2264595 277.096804c-1.9421246 0-3.878328.038809-5.8180145.139235-1.4785364.076937-3.7379629-.228087-4.9890589.689027-1.2998581.952517-1.2103448 2.90249-1.0072855 4.279522 1.0734626 7.282098 3.6933803 13.739338 9.1742398 18.898526 8.438977 7.944231 18.1133766 11.980687 29.5613236 13.778148 8.041566 1.262648 15.465246-.490557 21.384965-6.181494 4.325197 7.988827 7.606538 16.829405 9.252955 25.752026.812237 4.402757 1.060228 8.752407.917424 13.235505-.091951 2.871511-.251125 5.736214-.560416 8.594108-.134095 1.241882-.770441 3.121726-.281775 4.295182.573303 1.378053 2.50672 1.5115 3.374685.336343.722376-.97805.589673-2.898746.73805-4.056202.2459-1.922738.473688-3.846837.636693-5.778427.264709-3.126491.460454-6.261834.446173-9.400241-.033088-7.051288-1.608452-14.13015-3.763388-20.823648-4.133981-12.84129-10.841556-24.253802-21.273509-33.208083-6.414305-5.506084-13.755439-7.735889-22.084353-8.932834-5.1855002-.745197-10.4556377-1.616693-15.7087085-1.616693" fill="#dde3e9" transform="matrix(.77714596 -.62932039 .62932039 .77714596 -176.119835 141.460043)"/><path d="m130.485146 308.720509c-1.575016-12.541712-3.242331-25.011595-6.293793-37.309561-1.798625-7.247033-4.103679-14.341556-6.198011-21.506206.187734.89873.353874 1.803248.49807 2.710148-.728645-2.136867-2.250371-4.180797-3.12565-6.310175-.976287-2.374827-1.761357-4.841569-2.507069-7.293673-1.455896-4.785738-2.829594-9.579647-4.468001-14.310577-1.825792-5.270849-3.928135-10.454207-5.887326-15.678758-1.662787-4.434076-3.2200396-9.08943-5.3847283-13.320952-1.1796944-2.306401-2.2374836-4.783696-3.3955833-7.134693-.3876587-.786729-3.7139301-9.575562-3.6888525-9.575562.5499668 0 2.6126034 3.906753 2.9542863 4.480715.9985781 1.676268 1.8470385 3.420622 2.7045548 5.16838.3702436-2.07525.9564337-4.106925 1.8797787-6.014684.28491-.588941 2.2848525-4.932123 2.9361743-4.932123.325313 0-2.6808699 8.201594-3.0608659 8.9216-.3085944.584855-.8867735 1.326308-1.0880913 1.94861-.3253128 1.004944-.1577802.753708.1107596 1.660268.4921489 1.66163 1.5812851 3.288877 2.2667408 4.884463.3761647.851751 1.3033408 3.803944 2.2054398 5.126167 2.322817 4.54029 3.973414 10.076332 5.741737 14.972369.380344-2.405465 1.037936-4.724802 1.948742-6.988308.215946-.537536 1.934462-5.525149 2.429397-5.525149.556933 0-1.575712 7.988146-1.865498 8.678194-.538125 1.281712-1.384147 2.522232-1.831713 3.826752-.491104 1.431841.371636 2.720702.921255 4.185224 2.021885 5.387956 3.794387 10.829699 5.413986 16.344635 9.405859-4.119521 11.276234-16.243868 11.88994-25.184873.441993-6.443964-.55554-13.006056-2.11941-19.256997-2.087018-8.342532-5.598237-16.396721-9.323661-24.150993-4.340871-9.035303-10.310396-17.105151-17.5080298-24.178907-3.7644337-3.699773-8.0516667-6.906266-12.4061217-9.910884-2.1270723-1.467926-4.3123107-2.686319-6.7953462-3.503006-1.1194384-.367662-2.2684823-.633877-3.4300651-.837793-.8825939-.154895-2.6833084-.973284-3.4150881-.764602-5.9754464 1.653119-10.4671319 4.402757-13.9494421 9.514285-3.2966659 4.838505-5.3429323 10.62306-6.4804823 16.297656-1.2664213 6.319027-1.571881 12.69014-.4848346 19.049677.8293039 4.852122 2.2597748 9.608925 3.6923355 14.319088 5.0949423 16.752808 14.0253716 34.713456 30.0496408 43.903313 5.1868936 2.975001 10.942214 4.713908 16.8504386 5.635788 1.392158.217193 2.782922.423833 4.191798.503152.949816.053788 4.072332-.577025 4.759529-.16749.942153.561366 1.483413 3.746071 1.894059 4.900803 3.120078 8.776578 5.910314 17.65256 8.442112 26.607862 2.693409 9.527903 4.83302 19.148401 6.615275 28.876135.757902 4.137563 1.496299 8.268318 2.124982 12.42835.146635.967837-.004876 4.011945.939715 4.86676.597336.5406 1.441617.318982 1.796884-.342811.617885-1.150647-.388704-4.327522-.549967-5.611617" fill="#c1dee2" transform="matrix(.79863551 -.60181502 .60181502 .79863551 -115.119568 98.828366)"/><path d="m680.980481 231.659775c-3.41095-.745155-7.177163-.688124-10.651628-.626654-18.633542.253394-36.931365 9.075393-48.840025 23.171536-10.137926 12.00035-12.925594 26.920194-14.928402 42.002251-.198571 1.497482-.283722 2.985403-.395745 4.485959-.02408.322036-.060025.609238-.098413.879707-.787653.704175-1.200847 1.525144-.734607 2.427049-1.735139 3.797151-3.202957 7.690606-4.462433 11.706318-3.706886 11.820038-7.477636 23.864783-5.154812 36.294059.542667-6.839927 1.684187-13.834212 3.049404-20.561784.078521-.386238.163324-.769402.251616-1.151201.009074-.040297.017449-.080594.026523-.12055.48334-2.060276 1.111507-4.058741 1.875429-6.025787.008026-.021515.015704-.042688.02408-.063861.100855-.258858.207993-.51635.313734-.773842.218812-.533083.443556-1.065142.681911-1.594469.080615-.180312.158089-.362332.232422-.545718 1.112206-2.725863 1.581935-5.797324 2.578279-8.617782.238355-.641339.487528-1.280288.748566-1.915821.015355-.037224.03106-.074448.046764-.111671.705641-1.710238 1.485267-3.399644 2.309562-5.071292.448093-.336721.687495-1.172032 1.073818-1.931189.079917-.149578.704594-1.147103.890602-1.721849.485434-.939128.969123-1.878598 1.458046-2.816019-.014657.005464-.029314.010928-.043971.016392.489272-.900197.979941-1.796637 1.466771-2.689321.107137-.196022.215322-.392385.323157-.58909.17484-.313156.34968-.625971.524171-.938103 1.632189-2.92086 3.36279-5.783322 5.160047-8.610269.641429-1.008794 2.173809-2.455393 2.467652-3.588152.010818-.042347.013261-.081278.019892-.121916 3.899873-5.477337 8.389526-10.529505 13.77362-14.532582-.650851.703492-2.034216 3.090927-2.399949 3.563565-1.119185 1.447281-2.33434 2.794504-3.554032 4.158118-2.184278 2.442757-4.316907 4.963036-6.211879 7.628111-3.465391 4.873904-6.45512 10.003252-9.281176 15.235732-.026871.030735-.056186.059763-.081661.091181-1.420357 1.750876-2.314449 4.397169-3.336966 6.400073 4.046446-1.874158 8.520744-3.095025 12.673629-4.75916 4.141369-1.659013 8.170017-3.506534 12.059421-5.676091 5.16947-2.883294 10.531927-6.138824 15.416278-9.822939 5.597322-3.472042 10.300901-8.251009 14.452739-13.265953 4.91227-5.933583 9.414138-11.919074 12.198316-19.123723 1.36766-3.540343 2.443572-7.23197 3.081511-10.966627.027918-.162896.063514-.339452.102251-.522838.652597-1.28985 1.236094-2.608727 1.725716-3.957998.777532-2.139847 2.613875-4.493814-.830228-5.2458" fill="#69a1ac"/><path d="m86.6033742 265.822266c-.4149805-1.519337-.6641561-3.090236-.5489358-4.679771.0292735-.401786.3662694-3.320229.6924928-3.320229.7597046 0-.2866457 7.532099-.143557 8m-13.2214201 6.573902c.0460375.018458.8825011 1.626183 1.1568942 2.092986.5829134.992991 1.204535 1.961906 1.8431058 2.907014-1.1981219-1.557167-2.2730188-3.059494-3-5m44.8752329-47.832628c.711635-.600271.322305-2.099909-.521777-1.27194-.681461.67089-.701755.604424-1.558388.561585-.695614-.034791-1.435554-.250805-2.134639-.336744-1.482818-.182262-2.957359-.259373-4.449256-.15526-3.197953.222765-6.309655.984527-9.271019 2.169231-5.1678342 2.067714-10.3845348 4.747123-14.4957306 8.478303-6.5368976 5.932606-11.7864429 14.053395-14.8839924 22.150817-1.9186115 5.014805-2.951484 10.048043-1.2075103 15.263803.8713194 2.606711 2.25053 5.087241 4.2521878 7.04565.5233791.511736 1.2131179.908195 1.7028512 1.445375.7530249.825891.5805235.561326.0910572 1.739798-.5345943 1.28674-1.0643821 2.575037-1.5906984 3.865151-1.3776085 3.37808-2.7338545 6.794326-3.7341494 10.299627-.3295152 1.153547-.5829268 2.32475-.7666435 3.508675-.1393897.895213-.948491 4.301074-.2443325 5.216279 1.1714611 1.523265 1.6705404-.815766 1.7081917-1.615953.0328447-.701009.0939946-1.403574.1815805-2.100428.2205669-1.754598.6195099-3.477001 1.1378154-5.169286.5599621-1.828852 1.2462296-3.623433 1.9282245-5.412042.6363328-1.66788 1.302306-3.324856 1.9813636-4.976379.3770465-.917541.7586326-1.833266 1.1402186-2.74899.1303107-.312857.1973353-.966353.5423382-.698152.7540931-1.955293 1.9818976-3.812186 2.9998165-5.647789 1.2470307-2.248159 2.5194293-4.491644 3.95258-6.633613 1.0336736-1.544814 2.1223554-3.057175 3.3135769-4.492424.6961475-.838613 1.4403605-1.626858 2.2310367-2.382389.434458-.414893 1.9178104-2.194674 2.5162249-2.194674-.25715 0-1.4203333 2.260361-1.6016467 2.527264-.7244528 1.068128-1.5108565 2.085629-2.3135491 3.099234-1.489494 1.881039-2.871642 3.830361-4.121877 5.869515.3607577.214716 1.8609329-.774484 2.3082084-.965314 1.0032322-.427615 2.0345026-.793178 3.0911408-1.075139 1.8612-.496936 4.1360296-1.062936 5.973464-1.062936-.5415371 0-1.798448.88379-2.3621486 1.12395-.9033629.384516-1.8296904.73528-2.7688354 1.028145-.8670468.270278-1.7498484.476426-2.6385247.666218-.8892103.189531-2.4959306.196801-3.3050319.670371-.0488665.02856.0018692.487071-.1895914.609877-.1927957.123845-.745014.083342-.7898751.117354-.6625018.497456-1.125799 1.938936-1.524475 2.647993-1.0344747 1.838459-2.0422464 3.691197-3.0598983 5.538483-.3153625.572231-.7348669.963757-.4574226 1.42772.2961364.4946 1.6951073.801486 2.241718.981671 2.029696.669593 4.086362.891319 6.2025758.539776 3.9637952-.657909 7.4042114-2.373561 10.5060334-4.802165 11.8807048-9.302117 21.6251678-21.007395 24.5998838-35.869545 1.231276-6.153034 2.557881-15.749316-4.611076-18.980703" fill="#89c5cc" transform="matrix(-.52991926 .8480481 .8480481 .52991926 -76.528782 42.420596)"/><path d="m661.71121 146.152379c9.649783 65.323899-224.373862 107.932443-425.803438 78.196968-201.4295757-29.735476-293.8359144-145.8558615-197.717079-207.7293678 96.118835-61.8735062 613.870735 64.2085009 623.520517 129.5323998z" fill="#dde3e9" opacity=".6" transform="translate(39 358)"/><rect fill="#f2f2f2" height="302" rx="8" width="159" x="138" y="76"/><circle cx="217" cy="344" fill="#fff" r="15"/><g fill="#fff"><circle cx="204" cy="94" r="2"/><rect height="4" rx="2" width="21" x="211" y="92"/></g><rect fill="#fff" height="54" rx="4" width="131" x="152" y="104"/><g fill="#dde3e9"><rect height="8.1" rx="3" width="73" x="191" y="120.2"/><rect height="8.1" rx="3" width="49" x="191" y="133.7"/></g><circle cx="173" cy="131" fill="#c5cfd6" r="12"/><rect fill="#fff" height="42" rx="4" width="131" x="152" y="166"/><g fill="#dde3e9"><rect height="6.3" rx="3" width="73" x="191" y="178.6"/><rect height="6.3" rx="3" width="49" x="191" y="189.1"/></g><circle cx="173" cy="187" fill="#c5cfd6" r="12"/><rect fill="#fff" height="42" rx="4" width="131" x="152" y="216"/><g fill="#dde3e9"><rect height="6.3" rx="3" width="73" x="191" y="228.6"/><rect height="6.3" rx="3" width="49" x="191" y="239.1"/></g><circle cx="173" cy="237" fill="#afb9c5" r="12"/><rect fill="#fff" height="42" rx="4" width="131" x="152" y="266"/><g fill="#dde3e9"><rect height="6.3" rx="3" width="73" x="191" y="278.6"/><rect height="6.3" rx="3" width="49" x="191" y="289.1"/></g><circle cx="173" cy="287" fill="#c5cfd6" r="12"/><g fill="#89c5cc" transform="translate(156 320)"><path d="m12.139863 0c-1.3248259 0-2.6456126.02660226-3.96877528.09544145-1.00858782.05273782-2.54986207-.15634663-3.40330081.47230684-.88670194.6529222-.8256402 1.98956922-.68712272 2.93348283.73226564 4.9916579 2.51944999 9.41790098 6.25823391 12.95436848 5.7566724 5.4455298 12.3560918 8.2123985 20.1653414 9.4445033 5.4855773.8655069 10.5496622-.3362619 14.587815-4.2372271 2.9504461 5.4760991 5.188822 11.5360479 6.3119303 17.6522347.5540699 3.0179567.7232371 5.9995103.6258234 9.0725384-.0627249 1.968334-.1713055 3.9320011-.3822892 5.891001-.0914739.8512724-.5255586 2.1398487-.1922138 2.9442171.3910802.9446137 1.7099662 1.0360881 2.3020512.2305529.4927706-.6704236.4022471-1.9870023.5034623-2.7804031.1677416-1.3179788.3231283-2.636891.4343224-3.9609369.1805717-2.1431156.3140997-4.2922984.3043583-6.4435814-.0225715-4.8334444-1.0972105-9.6857905-2.5672065-14.2739807-2.8200067-8.8023153-7.3955978-16.6252474-14.5117848-22.76313608-4.3755367-3.77425435-9.3833119-5.30271768-15.0649044-6.12318746-3.537304-.51081012-7.1323434-1.10819426-10.7157407-1.10819426"/><path d="m32.5712675 35c-14.2988979 0-23.92922195 11.5241625-28.48258601 23.5015953-1.71643912 4.5147353-2.11873685 9.4722789-2.7802567 14.2128533-.21238885 1.5212868-.13370897 3.8394922-.75120555 5.1947543-.22409717.4914787-.73785807.6681927-.4922176 1.3377499.14869561.4055097.44046684.6538645.87859202.7343751.89943283.1655699 2.17119011-.813976 2.94229979-1.2006089 6.39601885-3.2076886 10.59836755-8.1675066 14.02656245-14.2358238 2.1250594-3.761256 4.2812628-7.6657935 5.5436534-11.795033.7711097-2.5224387 1.2200066-5.1790616 1.4836778-7.7958842.1037357-1.0304904.2041931-2.0855434.1981047-3.1224019-.0060883-1.0286709-.4847242-1.5724588-.8287146-2.4678551 4.7711388-1.8060306 10.1564958-2.2981915 14.9894544-.4266608 4.4700009 1.7309783 8.1831762 5.0760353 10.2623389 9.2785076.5402217 1.0923517.9568036 2.2447452 1.2602832 3.4201093.198573.7698543.2081738 1.7687318.5762833 2.4646711.892642 1.6873115 2.7706558.5592531 2.5903478-1.0113862-.5027551-4.3814607-3.0092714-8.7802061-6.2129008-11.8264185-4.0405398-3.8417666-9.5174558-6.2625435-15.2037165-6.2625435"/></g><rect fill="#dde3e9" height="302" rx="8" width="159" x="204" y="102"/><circle cx="283" cy="370" fill="#fff" r="15"/><g fill="#fff"><circle cx="270" cy="120" r="2"/><rect height="4" rx="2" width="21" x="277" y="118"/></g><rect fill="#fff" height="54" rx="4" width="131" x="218" y="130"/><g fill="#dde3e9"><rect height="8.1" rx="3" width="73" x="227" y="146.2"/><rect height="8.1" rx="3" width="49" x="227" y="159.7"/></g><circle cx="335" cy="157" fill="#dde3e9" r="7"/><circle cx="335" cy="157" fill="#f2f2f2" r="3"/><rect fill="#fff" height="42" rx="4" width="131" x="218" y="192"/><g fill="#dde3e9"><rect height="6.3" rx="3" width="73" x="257" y="204.6"/><rect height="6.3" rx="3" width="49" x="257" y="215.1"/></g><circle cx="239" cy="213" fill="#c5cfd6" r="12"/><rect fill="#fff" height="42" rx="4" width="131" x="218" y="242"/><rect fill="#dde3e9" height="6.3" rx="3" width="73" x="227" y="254.6"/><rect fill="#afb9c5" height="6.3" rx="3" width="49" x="227" y="265.1"/><circle cx="335" cy="263" fill="#dde3e9" r="7"/><circle cx="335" cy="263" fill="#f2f2f2" r="3"/><rect fill="#fff" height="42" rx="4" width="131" x="218" y="292"/><g fill="#dde3e9"><rect height="6.3" rx="3" width="73" x="257" y="304.6"/><rect height="6.3" rx="3" width="49" x="257" y="315.1"/></g><circle cx="239" cy="313" fill="#c5cfd6" r="12"/><g transform="translate(270 127)"><rect fill="#f2f2f2" height="346" rx="8" width="335"/><rect fill="#fff" height="81" rx="8" width="70" x="249" y="43"/><g fill="#dde3e9"><circle cx="284" cy="74" r="16"/><rect height="6" rx="3" width="50" x="259" y="94"/><rect height="6" rx="3" width="34" x="267" y="104"/></g><path d="m8 0h319c4.418278 0 8 3.581722 8 8v19h-335v-19c0-4.418278 3.581722-8 8-8z" fill="#c5cfd6"/><g fill="#f2f2f2"><circle cx="13" cy="14" r="4"/><circle cx="25" cy="14" r="4"/><circle cx="37" cy="14" r="4"/></g><rect fill="#fff" height="194" rx="8" width="70" x="249" y="132"/><rect fill="#dde3e9" height="26" rx="4" width="34" x="267" y="150"/><rect fill="#afb9c5" height="25" rx="4" width="34" x="267" y="184"/><rect fill="#dde3e9" height="25" rx="4" width="34" x="267" y="217"/><rect fill="#dde3e9" height="25" rx="4" width="34" x="267" y="283"/><rect fill="#c5cfd6" height="25" rx="4" width="34" x="267" y="250"/><rect fill="#fff" height="47" rx="4" width="225" x="16" y="44"/><g fill="#dde3e9"><rect height="7.05" rx="3" width="167" x="25" y="58.1"/><rect height="7.05" rx="3" width="112.09589" x="25" y="69.85"/></g><circle cx="216.954198" cy="67.5" fill="#dde3e9" r="7"/><circle cx="216.954198" cy="67.5" fill="#f2f2f2" r="3"/><rect fill="#fff" height="39" rx="4" width="225" x="16" y="99"/><g fill="#dde3e9"><rect height="5.85" rx="2.925" width="167" x="25" y="110.7"/><rect height="5.85" rx="2.925" width="112.09589" x="25" y="120.45"/></g><circle cx="216.954198" cy="118.5" fill="#dde3e9" r="7"/><circle cx="216.954198" cy="118.5" fill="#f2f2f2" r="3"/><rect fill="#fff" height="39" rx="4" width="225" x="16" y="146"/><g fill="#dde3e9"><rect height="5.85" rx="2.925" width="167" x="25" y="157.7"/><rect height="5.85" rx="2.925" width="112.09589" x="25" y="167.45"/></g><circle cx="216.954198" cy="165.5" fill="#dde3e9" r="7"/><circle cx="216.954198" cy="165.5" fill="#afb9c5" r="3"/><rect fill="#fff" height="39" rx="4" width="225" x="16" y="287"/><g fill="#dde3e9"><rect height="5.85" rx="2.925" width="167" x="25" y="298.7"/><rect height="5.85" rx="2.925" width="112.09589" x="25" y="308.45"/></g><circle cx="216.954198" cy="306.5" fill="#dde3e9" r="7"/><circle cx="216.954198" cy="306.5" fill="#f2f2f2" r="3"/><rect fill="#fff" height="39" rx="4" width="225" x="16" y="240"/><g fill="#dde3e9"><rect height="5.85" rx="2.925" width="167" x="25" y="251.7"/><rect height="5.85" rx="2.925" width="112.09589" x="25" y="261.45"/></g><circle cx="216.954198" cy="259.5" fill="#dde3e9" r="7"/><circle cx="216.954198" cy="259.5" fill="#f2f2f2" r="3"/><rect fill="#fff" height="39" rx="4" width="225" x="16" y="193"/><g fill="#dde3e9"><rect height="5.85" rx="2.925" width="167" x="25" y="204.7"/><rect height="5.85" rx="2.925" width="112.09589" x="25" y="214.45"/></g><circle cx="216.954198" cy="212.5" fill="#dde3e9" r="7"/><circle cx="216.954198" cy="212.5" fill="#f2f2f2" r="3"/></g><path d="m687.985552 297.375543c-3.944318-2.674646-9.189499-3.375543-13.909609-3.375543-18.435862 0-35.764716 6.840049-50.734807 17.031869-8.202866 5.584485-15.54095 12.696104-22.019423 20.100544-3.739384 4.274175-7.073702 8.898078-9.434311 14.04063-1.59294 3.470989-2.686286 7.087488-3.427369 10.817801-.903183 4.546106-1.620634 9.184416-1.945203 13.806158-.127761 1.819955-1.18529 11.477278 1.840706 11.640797-.017355.238074-.021417.464983-.002954.668481-6.570416 10.273579-10.629939 22.313808-14.394433 33.729136-3.275238 9.933576-6.193782 19.951072-8.088398 30.227533-2.494277 13.529545-4.132634 27.262587-4.91175 40.986626-.167269 2.949458-.282106 5.900357-.381065 8.853776-.083819 2.519052-.168746 5.038103-.251458 7.557154-.092312 2.823037-.589322 6.07324-.140315 8.879709.390666 2.444135 2.506093 2.074237 2.599513-.358012.11299-2.937212.094528-5.880187.223026-8.81956.170963-3.901036.347094-7.802071.537996-11.702027 1.328927-27.091865 6.314526-53.785379 15.515472-79.376402 3.723507-10.356059 7.990178-20.159613 13.473895-29.739498 4.821283-8.42301 10.620707-16.577331 16.54863-24.171942 5.761761-7.380308 11.752087-14.589894 18.811758-20.842861 5.728897-5.074119 12.0305-9.494525 18.508235-13.607702 8.227605-5.223952 16.439333-10.321122 25.351525-14.33129 4.632598-2.084322 9.352707-3.95038 14.021491-5.950421.840042-.359813 1.74064-.708821 2.548557-1.125541 2.695148-1.389909 1.807842-3.483235-.339709-4.939415" fill="#c1dee2"/><path d="m628.1822 392c-7.477289 0-14.13091.971586-21.020411 3.943116-5.947023 2.564607-11.366703 5.959719-16.628666 9.65603-7.401558 5.198563-13.23151 11.249049-17.312337 19.265824-2.438005 4.78926-4.226385 11.566226-2.589121 16.789946 1.928727 6.152472 7.224388 11.283724 14.198999 10.199614 4.312886-.669708 8.266567-3.524634 11.544569-6.211624 3.921373-3.214597 7.060418-7.079864 9.652318-11.372792 4.228122-7.002695 6.712677-14.919184 10.304375-22.236675 1.704311-3.472962 3.351301-6.97074 5.392583-10.271345 1.010567-1.634494 2.086444-3.253351 3.619489-4.468004.820196-.64965 4.278494-1.774215 2.955969-3.233294 19.390442.254625 36.568337 15.146612 40.290655 33.579891.346698 1.718124.617665 3.450185.903917 5.178847.180644 1.091589.107691 5.116974 1.083519 5.814218 2.1521 1.538288 1.247488-3.134708 1.155082-3.807475-.238659-1.73886-.493298-3.476361-.760444-5.210802-1.453493-9.434039-5.653475-18.204151-12.657616-24.932163-8.009496-7.69348-18.816201-12.683312-30.13288-12.683312" fill="#89c5cc" transform="matrix(-1 0 0 1 1242 0)"/><g transform="translate(65 333)"><path d="m9.93785602 35.7363701c18.66649138 31.3154785 40.40702018 61.6374713 53.46297898 95.8763489-.5261226-4.035721-1.083987-8.067262-1.7084015-12.093066-3.3127707-21.3407636-7.4300059-42.5258043-11.7565193-63.6848742-2.2033177-10.7731708-4.5335906-21.5072995-6.9236295-32.2405105-1.2854372-5.7648112-2.5551137-11.5331349-3.8670377-17.29245659-.3177767-1.3959076-.5908119-3.83238241-.9886528-6.30181171 12.6883191 41.636678 24.9241369 83.3047517 33.8742033 125.94239 1.1741295 5.595736 2.1739889 11.181528 2.9930106 16.757603.280177-1.272038.5557565-2.544291.8573901-3.812843 3.6213631-15.207304 9.0535246-30.29357 15.5214642-44.5126943 3.0920586-6.7999265 6.643724-13.4509381 10.8254886-19.6483264 2.60767-3.8631057 8.757368-8.4552461 11.13621-12.4116294-13.009783 23.8614774-17.7073738 53.7171331-25.2192273 79.6588341-1.8334978 6.330516-3.6783855 12.650756-5.4860497 18.98213 11.3281932-22.718209 28.904132-41.383978 53.340916-49.472898-29.579785 19.544377-47.3220301 53.771465-59.2778664 88.777191-.0393956.415148-.0862347.830301-.1267247 1.246106 3.5181554-6.677028 7.9498014-12.71638 13.9560845-16.946256 12.8550986-9.055128 27.1156046-6.417215 39.5855136 1.350247-9.78678-6.221151-27.474343-.556195-35.7090033 5.76684-5.8951238 4.52631-10.9331746 10.598699-15.3081827 16.522907-1.048304 1.420075-2.4785017 3.076977-3.9894213 4.844883-2.1183713 13.750798-5.570488 27.407354-10.4579391 40.955516.8065573-3.88874.2233999-10.108123.4470694-13.006682.0243459-.313819.0440943-.627854.0682217-.940797-.7429229 2.966327-1.460688 5.898938-2.1517704 8.784262 1.3737733-5.505858 2.1204106-11.253515 2.7032589-17.060576.1501147-2.495641.2965077-4.99128.45122-7.486705-.0490342-4.736097-.2441019-9.49091-.5740318-14.253285-1.1698723-4.628511-2.4797113-8.994326-3.5599286-12.625037-3.8979938-13.100751-9.6123256-25.651604-16.6456542-37.360337-6.4171438-10.684829-14.098462-20.363237-22.9660621-29.116244-4.780438-4.717194-9.7833989-9.20993-14.7159003-13.765082-1.78362066-1.646737-4.97166368-5.695664-7.7288832-7.806285 20.0804874 11.070534 40.7488532 23.047262 55.3976085 40.884374-1.7173986-6.594962-3.582739-13.096598-5.5559375-19.467954-10.0105237-32.3251898-22.6503353-65.8271259-39.90381498-95.0432819z" fill="#dde3e9"/><path d="m30 213c0 35.898509 2.8428117 65 41 65 38.157188 0 41-29.101491 41-65" fill="#c5cfd6"/></g><g fill="#dde3e9"><rect height="25" rx="3" width="6" x="520" y="84"/><rect height="41" rx="3" width="6" x="534" y="68"/><rect height="49" rx="3" width="6" x="548" y="60"/><rect height="41" rx="3" width="6" x="562" y="68"/></g><rect fill="#c5cfd6" height="57" rx="3" width="6" x="576" y="52"/><g transform="matrix(-1 0 0 1 68 338)"><path d="m40 20.256388c0-11.13898776-9.002-20.256388-20-20.256388v20.256388l13.668 14.743612c3.888-3.6046242 6.332-8.8925543 6.332-14.743612z" fill="#f2f2f2"/><path d="m20.5292199 20h-20.1972199c0 5.221 2.12979684 10.113 5.4966734 13.668 3.70316027 3.888 8.9766544 6.332 14.7005465 6.332 5.2724843 0 10.09861-2.109 13.8027801-5.443z" fill="#afb9c5"/><path d="m0 20c0-10.998 9.002-20 20-20v20zm30-20-8 18 18-8c-1.78-4.666-5.777-8.22-10-10z" fill="#c5cfd6"/></g><g transform="translate(641 330)"><path d="m37.7664728 37.179c-1.9215789 2.04-4.6436902 3.321-7.6712678 3.321-5.8174031 0-10.5333217-4.701-10.5333217-10.5s4.7159186-10.5 10.5333217-10.5v-19.5c-16.5493532 0-30.095205 13.503-30.095205 30s13.5458518 30 30.095205 30c8.693 0 16.5493533-3.666 21.904795-9.498z" fill="#f2f2f2"/><path d="m30 0v19.5c5.799 0 10.5 4.701 10.5 10.5h19.5c0-16.497-13.503-30-30-30z" fill="#afb9c5"/><path d="m40.0969635 30c0 3.4069834-1.6044909 6.4354131-4.0969635 8.3907651l12.2618015 15.6092349c7.1375351-5.5882465 11.7381985-14.2507155 11.7381985-24z" fill="#c5cfd6"/></g><g transform="translate(459 63)"><path d="m29.0511329 28.5039c-1.4781376 1.564-3.5720693 2.5461-5.9009752 2.5461-4.4749255 0-8.1025552-3.6041-8.1025552-8.05s3.6276297-8.05 8.1025552-8.05v-14.95c-12.7302717 0-23.1501577 10.3523-23.1501577 23s10.419886 23 23.1501577 23c6.6869231 0 12.7302717-2.8106 16.8498423-7.2818z" fill="#f2f2f2"/><path d="m23 0v14.95c4.4459 0 8.05 3.6041 8.05 8.05h14.95c0-12.6477-10.3523-23-23-23z" fill="#afb9c5"/><path d="m31.0727226 23c0 2.5552376-1.2033682 4.8265598-3.0727226 6.2930738l9.1963511 11.7069262c5.3531513-4.1911849 8.8036489-10.6880366 8.8036489-18z" fill="#c5cfd6"/></g><g transform="translate(76 57)"><g fill="#c5cfd6"><path d="m48.007 51.9862978c-.004.01-.008.02-.014.032.006-.01.014-.05.014-.032"/><path d="m47.9976864 52.0014952c0 .002-.002.006-.002.01 0-.01.018-.04.002-.01"/><path d="m48.0671431 51.8323017c-.014.04-.032.078-.048.118.008-.02.016-.036.024-.056-.208.52-.076.182.024-.062"/><path d="m48.0223751 51.95275c-.008.018-.016.038-.024.056-.058.112.024-.056.024-.056"/><path d="m48 52.001v-.002z"/><path d="m47.999 52.002c0-.002 0-.002.002-.004-.002.002-.002.002-.002.004"/><path d="m47.9895117 52.0163509c-.012.024.056-.092 0 0"/><path d="m47.998 52.002.004-.004c-.002.002-.002.004-.004.004"/></g><rect fill="#dde3e9" height="63" rx="4" width="95"/><g transform="translate(8 18)"><path d="m28 0-28 45h56z" fill="#afb9c5"/><path d="m55.5 12-24.5 33h49z" fill="#c5cfd6"/></g><circle cx="74" cy="21" fill="#fff" r="9"/></g><g transform="matrix(-1 0 0 1 672 459)"><g fill="#c5cfd6"><path d="m71.007 76.9862978c-.004.01-.008.02-.014.032.006-.01.014-.05.014-.032"/><path d="m70.9976864 77.0014952c0 .002-.002.006-.002.01 0-.01.018-.04.002-.01"/><path d="m71.0671431 76.8323017c-.014.04-.032.078-.048.118.008-.02.016-.036.024-.056-.208.52-.076.182.024-.062"/><path d="m71.0223751 76.95275c-.008.018-.016.038-.024.056-.058.112.024-.056.024-.056"/><path d="m71 77.001v-.002z"/><path d="m70.999 77.002c0-.002 0-.002.002-.004-.002.002-.002.002-.002.004"/><path d="m70.9895117 77.0163509c-.012.024.056-.092 0 0"/><path d="m70.998 77.002.004-.004c-.002.002-.002.004-.004.004"/></g><rect fill="#dde3e9" height="94" rx="4" width="142"/><g transform="translate(11 27)"><path d="m41.7257937 0-41.05500005 67h82.11000005z" fill="#afb9c5"/><path d="m84.0557937 17.9464286-36.295 49.0535714h72.5900003z" fill="#c5cfd6"/></g><circle cx="110.5" cy="31.5" fill="#fff" r="13.5"/></g></g></svg>