
<svg version="1.0" xmlns="http://www.w3.org/2000/svg"
 width="300.000000pt" height="300.000000pt" viewBox="0 0 300.000000 300.000000"
 preserveAspectRatio="xMidYMid meet">
<metadata>
Created by potrace 1.10, written by Peter Selinger 2001-2011
</metadata>
<g transform="translate(0.000000,300.000000) scale(0.100000,-0.100000)"
fill="#000000" stroke="none">
<path d="M1354 2477 c-3 -8 -4 -36 -2 -63 l3 -49 65 0 65 0 0 60 0 60 -63 3
c-47 2 -64 -1 -68 -11z m86 -52 c0 -20 -5 -25 -25 -25 -20 0 -25 5 -25 25 0
20 5 25 25 25 20 0 25 -5 25 -25z"/>
<path d="M1790 2456 c-59 -13 -87 -26 -137 -63 -39 -30 -91 -108 -99 -151 -6
-30 -9 -32 -48 -32 -72 0 -91 -49 -33 -85 18 -11 42 -40 55 -65 19 -37 23 -56
19 -108 -5 -73 -42 -138 -82 -148 -16 -4 -25 -13 -25 -25 0 -17 8 -19 70 -19
l70 0 41 45 c105 114 310 113 364 -3 l20 -42 172 2 171 3 43 30 c58 41 88 103
88 180 1 145 -106 245 -261 245 -45 0 -58 3 -58 15 0 32 -51 114 -95 153 -73
64 -175 89 -275 68z m158 -38 c6 -1 12 -5 12 -10 0 -4 9 -8 20 -8 11 0 20 -4
20 -10 0 -5 4 -10 10 -10 13 0 70 -57 70 -70 0 -6 5 -8 10 -5 10 6 14 -7 11
-32 -1 -7 3 -13 9 -13 5 0 10 -6 10 -12 1 -32 36 -55 95 -62 70 -8 115 -25
115 -44 0 -7 -4 -11 -9 -7 -5 3 -24 -8 -42 -25 -18 -16 -35 -27 -38 -25 -2 3
-10 0 -18 -6 -7 -6 -13 -8 -13 -4 0 4 -7 2 -15 -5 -20 -16 -88 -14 -118 3 -29
17 -46 15 -79 -7 -29 -19 -53 -72 -37 -81 5 -4 8 -22 6 -41 -1 -25 -6 -33 -16
-29 -10 4 -8 -2 5 -16 l19 -23 -33 23 c-18 13 -39 21 -46 18 -7 -3 -28 -2 -47
2 -26 5 -33 11 -32 29 2 39 3 42 14 42 13 0 33 19 46 45 6 11 10 59 9 108 -1
83 -2 88 -30 112 -16 14 -33 25 -38 25 -4 0 -8 5 -8 12 0 13 -39 58 -51 58
-13 0 -59 -46 -59 -59 0 -6 -4 -11 -9 -11 -15 0 -73 -61 -68 -73 2 -7 1 -49
-2 -94 -3 -45 -5 -80 -3 -78 2 2 21 -13 42 -32 24 -23 36 -42 32 -51 -3 -9 -1
-13 5 -9 6 4 13 1 16 -7 6 -14 -21 -46 -38 -46 -5 0 -17 -8 -28 -17 -15 -13
-18 -14 -13 -3 5 8 -13 -6 -38 -32 -41 -43 -66 -59 -66 -42 0 10 34 69 45 76
6 4 7 8 4 8 -4 0 -2 21 2 48 15 76 -5 149 -53 195 l-39 37 33 14 c18 8 36 13
39 10 6 -3 15 12 44 82 18 43 59 94 76 94 6 0 7 6 3 13 -4 6 -4 9 1 5 4 -4 20
1 34 11 51 36 115 44 229 29z m-170 -144 c-4 -31 -2 -33 32 -36 l35 -3 3 -99
c3 -106 -3 -121 -45 -111 -20 5 -22 1 -25 -42 -3 -40 -6 -48 -23 -48 -17 0
-20 7 -21 45 -1 40 -3 45 -25 46 -51 1 -50 -2 -47 107 l3 102 33 3 c29 3 32 6
32 37 0 33 13 46 38 37 9 -3 12 -16 10 -38z m571 -178 c12 -15 5 -46 -11 -46
-20 0 -68 -42 -68 -60 0 -31 -58 -42 -80 -15 -8 9 -30 15 -60 15 -30 0 -52 -6
-60 -15 -7 -8 -19 -15 -28 -15 -19 0 -52 29 -52 46 0 36 71 61 84 29 8 -21
102 -21 123 0 8 8 27 14 43 13 30 -2 60 16 60 37 0 12 13 22 31 24 4 1 12 -5
18 -13z m85 -56 c14 -46 12 -120 -3 -120 -3 0 -19 13 -34 29 -15 17 -36 33
-47 36 -27 9 -25 16 15 55 19 19 35 40 35 48 0 27 20 0 34 -48z m-364 -105
c10 -12 37 -15 120 -15 87 0 109 3 114 15 8 23 53 18 70 -7 13 -19 14 -25 2
-43 -17 -25 -49 -31 -66 -10 -18 22 -222 22 -240 0 -23 -28 -80 -7 -80 30 0
37 57 58 80 30z m214 -86 c14 -7 24 -15 21 -19 -2 -3 10 -5 28 -3 18 2 25 0
17 -4 -8 -3 -18 -10 -21 -15 -8 -12 -259 -17 -281 -6 -10 5 -18 14 -18 20 0 6
3 8 7 5 3 -4 16 -1 28 7 11 7 30 16 40 18 44 10 155 8 179 -3z"/>
<path d="M1698 2130 l4 -70 54 0 54 0 0 70 0 70 -57 0 -58 0 3 -70z m76 13 c8
-19 -17 -48 -33 -39 -12 8 -15 39 -4 49 12 12 31 7 37 -10z"/>
<path d="M935 2350 c-6 -46 -10 -52 -42 -65 -34 -14 -36 -14 -75 17 l-40 31
-55 -55 -55 -56 26 -44 c25 -43 25 -45 9 -81 -14 -30 -24 -38 -53 -43 -65 -12
-70 -18 -70 -90 0 -43 4 -66 13 -69 6 -2 30 -9 52 -14 32 -9 44 -18 57 -46 15
-35 15 -38 -9 -81 l-26 -46 55 -54 54 -55 42 30 c39 29 43 30 74 17 28 -12 34
-21 43 -63 l10 -48 75 0 75 0 9 49 c7 42 13 50 43 62 32 14 35 13 68 -13 19
-16 37 -28 39 -28 12 0 106 90 106 102 0 7 -9 31 -19 51 -16 32 -18 43 -8 74
11 34 16 38 67 50 l55 14 3 66 c3 74 -1 80 -71 92 -31 6 -40 13 -53 44 -15 35
-15 39 6 79 12 23 20 48 17 56 -3 7 -28 32 -55 56 l-51 42 -34 -31 c-34 -29
-36 -30 -70 -15 -30 12 -36 20 -43 62 l-9 48 -77 3 -76 3 -7 -51z m129 -15 c9
-14 13 -25 9 -25 -3 0 8 -13 26 -29 39 -35 74 -45 101 -31 11 6 25 8 30 5 5
-3 12 0 16 6 5 8 3 9 -6 4 -9 -5 -11 -4 -6 3 10 16 51 -5 67 -34 9 -18 10 -30
1 -49 -7 -14 -12 -41 -12 -60 0 -43 47 -100 89 -108 52 -11 54 -90 3 -102 -41
-9 -69 -38 -83 -83 -9 -32 -9 -48 -1 -68 18 -38 15 -59 -14 -88 -27 -26 -51
-36 -38 -14 5 7 3 8 -5 4 -7 -5 -21 0 -31 9 -14 13 -28 16 -54 11 -35 -7 -76
-46 -76 -72 0 -23 -31 -44 -64 -44 -27 0 -35 6 -49 35 -9 20 -24 38 -32 41 -8
4 -15 10 -15 16 0 5 6 6 13 2 6 -4 8 -3 4 1 -4 5 -13 10 -20 12 -7 1 -24 5
-39 9 -19 4 -35 0 -53 -14 -22 -17 -31 -19 -51 -10 -33 15 -58 56 -45 72 6 7
8 16 4 19 -3 4 -2 7 4 7 12 0 7 66 -8 102 -6 15 -15 25 -20 22 -5 -3 -9 0 -9
5 0 6 -18 18 -40 27 -35 14 -40 20 -40 48 0 36 15 56 43 56 25 0 76 58 83 96
4 20 0 43 -10 63 -19 35 -10 63 25 82 16 8 29 7 56 -6 31 -15 41 -16 75 -4 22
7 45 21 52 31 7 10 16 15 21 10 4 -4 5 1 2 11 -20 54 65 82 97 32z"/>
<path d="M952 2190 c-13 -6 -28 -8 -33 -4 -5 3 -9 0 -9 -5 0 -6 -7 -11 -17
-11 -9 0 -14 -2 -11 -5 2 -3 -15 -25 -38 -50 -39 -40 -64 -95 -66 -144 -1 -24
12 -82 22 -101 13 -24 80 -103 80 -94 0 4 10 -1 22 -12 14 -13 19 -14 14 -4
-4 8 0 6 9 -5 13 -17 28 -20 94 -20 65 0 83 4 102 20 12 11 19 14 15 8 -5 -9
-2 -11 8 -7 9 3 16 10 16 16 0 5 14 21 30 35 17 14 28 28 25 31 -3 3 2 14 12
24 9 10 12 18 7 18 -5 0 -3 4 4 9 8 4 14 29 15 57 2 68 -5 114 -17 107 -5 -4
-7 1 -3 11 4 10 3 15 -3 11 -6 -3 -10 1 -10 9 0 8 -12 24 -26 35 -15 12 -23
21 -19 21 4 0 2 7 -5 15 -6 8 -15 14 -18 13 -4 -1 -18 4 -31 11 -31 17 -139
24 -169 11z m121 -32 c55 -17 122 -82 137 -135 35 -115 -45 -240 -160 -251
-74 -7 -117 5 -162 46 -50 46 -68 85 -68 155 0 75 39 135 111 171 59 29 83 32
142 14z"/>
<path d="M505 2200 c-40 -44 27 -97 69 -54 9 8 16 22 16 29 0 19 -28 45 -49
45 -10 0 -26 -9 -36 -20z"/>
<path d="M1762 1810 c-55 -13 -108 -55 -133 -107 -28 -56 -33 -163 -10 -207
14 -26 13 -28 -70 -114 -450 -466 -546 -568 -558 -590 -8 -16 -12 -45 -9 -79
5 -60 31 -96 85 -119 85 -36 129 -9 293 180 l133 155 46 -52 c25 -28 44 -58
43 -67 -10 -43 -13 -105 -7 -136 16 -89 131 -156 230 -134 27 6 52 13 57 16 5
3 -26 33 -69 66 -43 33 -80 61 -82 64 -3 3 41 62 80 107 4 5 45 -21 90 -57 93
-72 97 -72 98 13 1 56 -30 122 -72 154 -39 29 -98 50 -133 45 -21 -2 -37 9
-89 66 l-62 69 96 114 c89 105 99 113 132 113 99 0 198 60 238 144 26 53 28
150 4 201 -9 19 -19 35 -22 35 -3 0 -30 -41 -60 -90 -29 -50 -56 -90 -58 -90
-10 0 -173 112 -173 118 0 4 25 45 55 92 46 73 52 86 37 92 -22 9 -69 8 -110
-2z m1 -26 c3 -4 -16 -28 -43 -54 -31 -30 -50 -57 -52 -76 -4 -35 -38 -48 -38
-14 0 63 102 174 133 144z m50 -36 c-30 -34 -64 -98 -58 -109 4 -5 1 -9 -5 -9
-7 0 -6 -6 2 -16 25 -31 61 -64 65 -60 2 2 16 -7 30 -20 14 -13 29 -21 33 -19
4 3 10 -1 13 -9 9 -23 69 -26 96 -5 13 11 21 19 17 19 -4 0 7 20 25 45 18 25
34 45 36 45 2 0 1 -4 -2 -10 -3 -5 -1 -10 5 -10 8 0 9 -15 4 -47 -7 -49 -38
-133 -49 -133 -4 0 -3 6 0 13 4 6 -3 0 -15 -16 -12 -15 -25 -25 -30 -22 -4 3
-10 -2 -13 -9 -5 -13 -32 -20 -120 -29 -15 -2 -36 -10 -46 -19 -14 -12 -23
-13 -37 -5 -17 9 -17 9 -6 -5 11 -14 6 -23 -33 -61 -25 -25 -45 -41 -45 -36 0
5 -6 8 -12 7 -7 -2 -12 3 -10 11 3 12 0 12 -13 1 -13 -11 -15 -10 -10 6 5 13
2 12 -7 -4 -8 -12 -16 -20 -19 -17 -5 5 -64 -58 -104 -110 -8 -11 -14 -15 -13
-10 2 6 -1 11 -7 12 -5 2 -10 -3 -11 -10 0 -6 -2 -17 -2 -24 -1 -7 -14 -20
-29 -28 -16 -10 -20 -14 -8 -10 17 5 15 2 -6 -17 -44 -39 -70 -118 -39 -118
29 0 -20 -81 -94 -155 -49 -49 -63 -52 -63 -12 0 42 -68 107 -105 100 -47 -9
-37 12 40 87 41 41 95 98 120 125 80 91 227 239 235 237 4 -1 7 4 7 11 0 7 12
24 28 38 44 42 82 86 82 98 0 6 5 11 10 11 10 0 9 15 -4 97 -3 21 0 36 10 44
8 7 33 39 56 71 22 32 45 58 49 58 4 0 20 11 35 25 34 31 44 33 17 3z m-158
-556 c0 -21 -219 -271 -235 -269 -8 1 -15 8 -15 14 0 7 51 71 113 143 102 118
137 146 137 112z m-21 -169 c3 -8 3 -20 -1 -25 -3 -7 -1 -8 5 -4 14 8 82 -62
82 -84 0 -27 24 -70 42 -76 15 -4 13 -10 -14 -40 -23 -25 -34 -31 -44 -23 -7
6 -10 17 -8 24 6 15 -31 43 -65 50 -21 4 -60 41 -61 58 0 5 -3 6 -7 4 -5 -2
-18 8 -30 23 l-22 27 30 36 c17 21 35 35 40 31 5 -3 9 -2 8 3 -3 17 2 21 20
16 11 -3 22 -12 25 -20z m204 -130 c-2 -13 -15 -19 -46 -21 -37 -3 -42 -1 -42
17 0 18 6 21 46 21 38 0 45 -3 42 -17z m82 -63 c30 -72 11 -98 -36 -49 -16 16
-34 27 -42 24 -7 -2 -11 -1 -7 4 3 5 0 11 -7 13 -8 3 -2 14 16 31 23 22 31 24
47 14 10 -6 23 -23 29 -37z m-255 -20 c3 -5 -1 -20 -9 -32 -21 -29 -20 -87 0
-116 9 -13 13 -30 10 -39 -6 -14 -8 -14 -26 2 -42 38 -49 119 -15 172 17 25
30 29 40 13z m-490 -25 c35 -34 34 -86 -1 -114 -37 -29 -70 -26 -105 8 -31 32
-35 50 -17 84 27 52 83 62 123 22z m592 -191 c0 -17 -28 -23 -55 -13 -26 10
-29 36 -4 41 23 5 59 -13 59 -28z"/>
<path d="M454 1777 c-3 -8 -4 -49 -2 -93 3 -73 5 -79 26 -82 20 -3 22 -9 22
-63 l0 -59 134 0 c134 0 160 6 137 34 -8 9 -39 11 -121 8 l-110 -5 0 42 c0 37
2 41 25 41 l26 0 -3 93 -3 92 -63 3 c-46 2 -64 -1 -68 -11z m94 -49 c3 -13 -3
-18 -22 -18 -27 0 -41 14 -31 31 10 16 49 6 53 -13z m0 -65 c-4 -20 -35 -30
-50 -15 -15 15 0 32 28 32 19 0 25 -5 22 -17z"/>
<path d="M1436 1644 c-22 -22 -20 -41 8 -59 29 -19 54 -10 62 21 12 46 -37 72
-70 38z"/>
<path d="M2215 1640 c-14 -23 11 -30 106 -30 90 0 100 2 97 18 -3 14 -17 17
-100 20 -59 2 -99 -1 -103 -8z"/>
<path d="M2214 1555 c-4 -9 -4 -18 -1 -22 4 -3 50 -5 104 -5 89 0 98 1 98 18
0 17 -10 19 -98 22 -81 2 -98 0 -103 -13z"/>
<path d="M1220 1533 c0 -5 18 -28 39 -52 l38 -44 -39 -39 -39 -39 -25 31 c-15
17 -35 41 -45 53 -16 19 -20 20 -29 7 -14 -22 -12 -87 4 -119 17 -32 57 -61
84 -61 10 0 35 -21 57 -47 l39 -47 68 74 68 74 -29 30 c-22 23 -29 41 -29 67
0 47 -16 75 -55 99 -31 19 -107 28 -107 13z m124 -120 c1 -16 9 -41 19 -56 22
-33 22 -32 -9 -73 -31 -40 -50 -43 -85 -10 -14 13 -36 27 -50 31 -34 10 -62
42 -47 51 7 4 14 2 16 -4 8 -26 62 -13 100 25 20 20 30 33 22 28 -10 -6 -9 -1
3 13 11 12 16 26 12 34 -6 10 -5 10 5 1 7 -6 13 -24 14 -40z"/>
<path d="M2233 1440 l-21 -40 21 -40 c22 -39 23 -40 77 -40 53 0 56 1 76 38
l20 39 -20 41 c-20 42 -20 42 -75 42 -55 0 -56 -1 -78 -40z m107 -15 c26 -32
-13 -81 -47 -59 -35 22 -23 74 17 74 10 0 23 -7 30 -15z"/>
<path d="M605 1419 c-212 -25 -197 -77 28 -100 160 -16 377 13 377 51 0 19
-64 39 -157 50 -99 11 -147 11 -248 -1z m282 -42 c15 -16 -14 -22 -109 -25
-158 -6 -258 13 -168 31 34 7 269 2 277 -6z"/>
<path d="M452 1236 l3 -71 55 -18 c116 -39 443 -28 487 16 9 9 15 40 17 81 2
57 0 66 -13 60 -67 -29 -124 -35 -291 -31 -127 2 -187 8 -218 19 l-43 16 3
-72z m116 -6 c2 -5 9 -7 14 -4 7 4 8 2 4 -5 -4 -6 -12 -8 -18 -5 -7 5 -9 1 -5
-9 4 -10 2 -17 -5 -17 -6 0 -6 -6 3 -16 12 -14 10 -14 -21 -2 -39 16 -56 38
-47 62 5 13 15 16 39 12 18 -3 34 -10 36 -16z m403 13 c7 -40 4 -53 -12 -58
-10 -4 -24 -3 -30 1 -7 4 -9 3 -6 -4 5 -6 -12 -13 -45 -17 -29 -4 -61 -9 -71
-11 -14 -2 -15 0 -6 17 5 11 8 28 4 38 -5 15 4 19 62 28 92 14 103 14 104 6z
m-206 -43 c0 -29 -32 -41 -41 -16 -9 24 4 48 23 44 12 -2 18 -12 18 -28z m-85
0 c0 -17 -7 -20 -40 -20 -33 0 -40 3 -40 20 0 17 7 20 40 20 33 0 40 -3 40
-20z"/>
<path d="M2091 1264 c-23 -17 -28 -63 -9 -82 17 -17 65 -15 75 3 6 11 34 15
113 17 85 2 105 6 105 18 0 12 -19 16 -100 18 -63 2 -105 7 -115 16 -26 22
-47 25 -69 10z"/>
<path d="M1840 1180 c-11 -11 -20 -26 -20 -33 0 -24 31 -57 54 -57 26 0 56 28
56 53 0 21 -35 57 -55 57 -8 0 -24 -9 -35 -20z"/>
<path d="M2092 1124 c-24 -17 -30 -62 -10 -82 17 -17 53 -15 68 3 10 12 36 15
115 15 81 0 104 3 108 15 9 23 -10 28 -104 26 -77 -2 -93 1 -116 18 -31 25
-33 25 -61 5z"/>
<path d="M450 1096 c0 -53 121 -81 323 -74 163 6 240 28 245 69 l3 26 -58 -19
c-112 -38 -404 -34 -483 7 -29 15 -30 15 -30 -9z"/>
<path d="M452 946 l3 -71 55 -20 c47 -16 82 -19 228 -20 162 0 175 1 188 20 8
11 30 37 50 57 26 26 38 48 40 73 2 19 2 35 0 35 -2 0 -16 -7 -32 -15 -83 -41
-364 -46 -477 -7 l-58 19 3 -71z m263 -10 c33 -2 86 0 117 4 36 4 62 2 69 -4
9 -8 10 -8 5 2 -5 8 1 12 18 12 14 0 26 -2 26 -4 0 -2 -13 -19 -30 -37 l-29
-34 -180 0 c-162 0 -181 2 -200 19 -12 11 -21 27 -21 38 0 16 7 17 83 12 45
-3 109 -7 142 -8z"/>
<path d="M2094 992 c-21 -14 -32 -47 -23 -69 11 -30 54 -40 78 -19 14 12 39
16 113 16 69 0 99 4 107 14 22 26 -12 37 -108 35 -73 -1 -95 2 -109 15 -20 17
-40 20 -58 8z"/>
<path d="M2094 852 c-6 -4 -16 -16 -21 -27 -27 -51 38 -97 80 -57 19 18 37 22
122 24 81 2 100 6 100 18 0 12 -19 16 -104 18 -74 2 -107 7 -118 17 -16 16
-41 19 -59 7z"/>
<path d="M452 757 l3 -72 37 -17 c56 -27 207 -42 320 -34 l96 8 -10 30 c-6 16
-8 51 -5 77 l6 48 -42 -8 c-93 -18 -279 -5 -367 25 l-41 14 3 -71z m115 0 c9
3 10 -4 2 -29 -11 -41 -11 -41 3 -32 6 4 8 3 5 -4 -14 -21 -75 3 -83 33 -8 34
2 45 34 36 15 -4 32 -6 39 -4z m201 -41 c-2 -13 -10 -21 -23 -21 -23 0 -33 34
-14 45 20 13 40 -1 37 -24z m87 -10 c1 -13 -2 -23 -6 -20 -4 2 -10 0 -14 -5
-9 -15 -41 -9 -40 8 1 9 7 26 14 39 15 29 46 15 46 -22z m-180 9 c0 -16 -7
-20 -35 -20 -28 0 -36 4 -38 22 -3 20 1 22 35 20 31 -2 38 -6 38 -22z"/>
<path d="M2088 708 c-20 -16 -24 -36 -14 -65 11 -33 52 -40 79 -15 19 18 37
22 122 24 81 2 100 6 100 18 0 12 -19 16 -104 18 -74 2 -107 7 -118 17 -18 18
-44 19 -65 3z"/>
<path d="M1424 596 c-15 -24 -15 -28 0 -51 33 -50 110 -14 90 43 -14 39 -66
44 -90 8z"/>
</g>
</svg>
