<svg className="" aria-label="Sawblade icon"  viewBox="0 0 64 64"  xmlns="http://www.w3.org/2000/svg"><g fill="#000" fillRule="evenodd"><path d="m32 12c-11.028 0-20 8.972-20 20s8.972 20 20 20 20-8.972 20-20-8.972-20-20-20zm0 38c-9.925 0-18-8.075-18-18s8.075-18 18-18 18 8.075 18 18-8.075 18-18 18z"/><path d="m59.447 24.105c-.34-.169-.745-.134-1.047.095l-2.767 2.077c-.297.191-.716.31-.823.262-.018-.014-.082-.1-.134-.31-.18-.729.187-1.909.322-2.247l1.805-4.224c.124-.289.104-.62-.053-.893l-4.001-6.93c-.189-.327-.54-.519-.926-.498-.378.022-.711.257-.859.605l-1.357 3.184c-.163.314-.467.626-.582.639-.022-.003-.121-.046-.271-.201-.521-.543-.793-1.747-.845-2.106l-.549-4.561c-.038-.312-.22-.59-.493-.747l-6.929-4c-.329-.188-.736-.177-1.051.031-.316.209-.487.578-.442.954l.417 3.441c.018.309-.083.764-.186.838-.021.011-.126.021-.334-.038-.722-.21-1.561-1.118-1.786-1.403l-2.756-3.673c-.188-.252-.485-.4-.8-.4h-8c-.379 0-.725.214-.895.553s-.133.744.094 1.047l2.082 2.773c.17.257.31.701.258.816-.014.019-.1.083-.309.134-.731.181-1.911-.187-2.248-.321l-4.224-1.805c-.29-.123-.62-.103-.893.054l-6.928 4c-.328.189-.521.548-.498.926.022.379.257.711.605.86l3.188 1.359c.276.138.62.453.633.579-.002.022-.045.121-.202.271-.541.52-1.748.792-2.107.844l-4.561.549c-.312.038-.589.221-.747.493l-4.028 6.982c-.165.329-.135.722.077 1.023.212.3.571.462.938.417l3.441-.417c.308-.015.763.084.838.186.009.021.021.127-.039.335-.209.722-1.117 1.561-1.402 1.785l-3.673 2.757c-.251.188-.4.485-.4.8v8c0 .379.214.725.553.895.339.168.744.133 1.047-.095l2.772-2.081c.258-.17.705-.306.817-.259.019.014.083.101.134.311.18.729-.187 1.91-.321 2.247l-1.805 4.224c-.124.289-.104.62.053.893l4 6.928c.189.327.536.52.926.498.378-.022.711-.257.859-.605l1.357-3.183c.163-.313.467-.626.582-.639.023.003.121.046.271.202.52.542.792 1.748.845 2.106l.549 4.561c.038.312.22.59.493.747l6.929 4c.328.188.734.176 1.051-.031.316-.209.487-.578.442-.954l-.417-3.441c-.018-.309.083-.764.186-.838.021-.009.127-.021.335.039.722.209 1.561 1.116 1.785 1.401l2.756 3.675c.188.252.485.4.8.4h8.001c.379 0 .725-.214.895-.553s.133-.744-.095-1.047l-2.079-2.768c-.19-.298-.308-.718-.262-.823.014-.019.1-.082.31-.134.73-.179 1.91.188 2.247.322l4.224 1.805c.29.123.621.104.893-.054l6.929-4c.169-.098.308-.246.396-.421.123-.247.139-.533.044-.792s-.292-.467-.546-.575l-3.184-1.356c-.314-.162-.625-.467-.638-.581.002-.023.045-.121.201-.271.542-.521 1.747-.793 2.106-.845l4.561-.549c.312-.038.589-.221.747-.493l4-6.928c.189-.328.177-.735-.032-1.051-.208-.315-.577-.488-.954-.442l-3.441.417c-.306.013-.763-.084-.838-.186-.009-.021-.021-.127.039-.335.209-.723 1.117-1.561 1.402-1.785l3.675-2.756c.251-.188.4-.485.4-.8v-8c0-.379-.214-.725-.553-.895zm-1.447 8.395-3.289 2.467c-.171.133-1.682 1.342-2.109 2.816-.306 1.055.004 1.745.317 2.139.787.984 2.237.947 2.581.931l1.516-.183-2.75 4.763-4.082.491c-.215.029-2.127.321-3.235 1.386-.792.761-.869 1.513-.793 2.01.188 1.248 1.46 1.943 1.769 2.097l1.406.6-4.765 2.751-3.78-1.615c-.201-.081-2.003-.784-3.494-.418-1.066.262-1.509.875-1.693 1.343-.461 1.175.292 2.415.483 2.701l.918 1.221h-5.5l-2.467-3.289c-.133-.171-1.342-1.682-2.817-2.108-1.054-.308-1.745.003-2.138.317-.986.787-.953 2.237-.931 2.58l.182 1.517-4.763-2.75-.492-4.083c-.03-.214-.323-2.128-1.385-3.233-.76-.793-1.513-.875-2.011-.794-1.248.188-1.943 1.461-2.096 1.77l-.6 1.404-2.75-4.764 1.615-3.78c.082-.201.784-2.004.417-3.493-.262-1.067-.875-1.51-1.344-1.693-1.176-.461-2.414.293-2.7.484l-1.22.915v-5.5l3.29-2.467c.171-.134 1.681-1.344 2.108-2.816.306-1.055-.004-1.745-.317-2.139-.787-.985-2.236-.949-2.581-.931l-1.517.183 2.75-4.765 4.083-.491c.215-.03 2.128-.323 3.234-1.384.793-.762.87-1.515.794-2.012-.189-1.248-1.461-1.944-1.77-2.097l-1.403-.599 4.762-2.75 3.782 1.615c.201.081 2.005.785 3.493.417 1.067-.263 1.51-.876 1.693-1.345.46-1.175-.294-2.413-.484-2.698l-.917-1.221h5.5l2.467 3.288c.133.171 1.343 1.683 2.817 2.109 1.053.305 1.745-.004 2.138-.317.986-.787.953-2.237.931-2.58l-.183-1.517 4.764 2.75.491 4.082c.03.214.322 2.126 1.385 3.234.76.792 1.511.866 2.01.794 1.247-.189 1.943-1.461 2.096-1.77l.601-1.405 2.75 4.765-1.615 3.78c-.081.2-.785 2.004-.417 3.493.262 1.066.875 1.51 1.344 1.693 1.176.458 2.414-.294 2.7-.484l1.221-.915z"/><path d="m32 26c-3.309 0-6 2.691-6 6s2.691 6 6 6 6-2.691 6-6-2.691-6-6-6zm0 10c-2.206 0-4-1.794-4-4s1.794-4 4-4 4 1.794 4 4-1.794 4-4 4z"/></g></svg>